<svg 
  id="Layer_1" 
  data-name="Layer 1"
  xmlns="http://www.w3.org/2000/svg"
  viewBox="0 0 128 128">
<defs>
<style>
  .cls-1{fill:#007aff}
</style>
</defs>
<path class="cls-1" d="M115.88 56.59v1.17c0 2.26-.1 4.44-.28 6.57-3.27 39.23-35.3 58.45-50.14 62.22a5.58 5.58 0 01-3 0c-9.61-2.47-26.47-11.43-38-28.13l-.46-.63a79.67 79.67 0 0191.84-41.2zM91.05 50.77a119.76 119.76 0 00-25 3.1 3.55 3.55 0 01-1 .1q-1.26-.07-2.55-.09a.51.51 0 01-.19-1 .38.38 0 01.19 0 119.39 119.39 0 0122.92-2.2c1.91-.04 3.77 0 5.63.09zM33.12 66.69a.53.53 0 01-.32.47 117.58 117.58 0 00-17.46 12.52c-.53-1.71-1-3.48-1.41-5.28a119.67 119.67 0 0111.8-7.79.94.94 0 01.42-.12c2.29-.19 4.16-.28 6.37-.32h.15a.51.51 0 01.45.52zM56.55 56.23a.38.38 0 01-.21.35.29.29 0 00-.1 0 116 116 0 00-14.71 5.9h-.06c-1.12 0-2.24 0-3.36-.06-1.61 0-4.78 0-3.61-.47a100.77 100.77 0 0115.19-5.94c2.13-.14 4.29-.22 6.45-.24a.41.41 0 01.41.46z"/>
<path class="cls-1" d="M115.89 27.7l.11 25.35A144.7 144.7 0 0012.25 64.9Q12 61.65 12 58.21l.08-30.56c0-3.46.72-4.35 3.9-5.75L60.45 2a8.79 8.79 0 017.14 0l44.49 19.85c3.17 1.42 3.81 2.38 3.81 5.85zm-24.07 5.4a4.44 4.44 0 00-5.16-.81l-7.22-7.23a4.46 4.46 0 00-6.29 0L60.32 37.89 54 31.6a4.42 4.42 0 00-6.28 0L25.09 54.22a143.1 143.1 0 0142.81-8.74c1.8-.09 3.6-.15 5.41-.16h1.87a144.85 144.85 0 0127 2.54q2.77.52 5.5 1.16z"/>
</svg>